<svg xmlns="http://www.w3.org/2000/svg" viewBox="0 0 100 100" width="100" height="100">
  <path d="M33.70 70.09L14.20 70.09Q7.33 70.09 3.71 66.97Q0.08 63.85 0.08 58.00L0.08 58.00Q0.08 45.52 14.20 45.52L14.20 45.52L43.99 45.52Q43.21 42.01 40.72 40.45Q38.22 38.89 33.70 38.89L33.70 38.89L5.23 38.89L5.23 29.92L33.70 29.92Q39.00 29.92 43.14 31.36Q47.27 32.80 50.08 36.62L50.08 36.62Q52.89 32.88 56.98 31.40Q61.08 29.92 66.30 29.92L66.30 29.92L85.80 29.92Q92.67 29.92 96.29 33.04Q99.92 36.16 99.92 42.01L99.92 42.01Q99.92 54.49 85.80 54.49L85.80 54.49L56.01 54.49Q56.86 58.00 59.32 59.56Q61.78 61.12 66.30 61.12L66.30 61.12L97.89 61.12L97.89 70.09L66.30 70.09Q61.00 70.09 56.86 68.64Q52.73 67.20 49.92 63.38L49.92 63.38Q47.11 67.12 43.02 68.60Q38.92 70.09 33.70 70.09L33.70 70.09ZM85.26 38.89L66.30 38.89Q61.78 38.89 59.28 40.45Q56.79 42.01 56.01 45.52L56.01 45.52L85.26 45.52Q86.82 45.52 87.71 44.50Q88.61 43.49 88.61 41.77L88.61 41.77Q88.61 38.89 85.26 38.89L85.26 38.89ZM14.74 61.12L14.74 61.12L33.70 61.12Q38.22 61.12 40.72 59.56Q43.21 58.00 43.99 54.49L43.99 54.49L14.74 54.49Q13.26 54.49 12.33 55.46Q11.39 56.44 11.39 58.23L11.39 58.23Q11.39 61.12 14.74 61.12Z" fill="#ffffff"/>
</svg>
